<svg xmlns="http://www.w3.org/2000/svg" viewBox="0 0 900 700" role="img" aria-labelledby="title desc"><title id="title">Broken trail sign</title><desc id="desc">A stylized broken wooden trail sign among mountain pines.</desc><defs><linearGradient id="wood" x1="0" x2="1"><stop offset="0" stop-color="#8d4f27"/><stop offset=".5" stop-color="#b66a2c"/><stop offset="1" stop-color="#6d351c"/></linearGradient><filter id="shadow" x="-20%" y="-20%" width="140%" height="150%"><feDropShadow dx="0" dy="14" stdDeviation="16" flood-color="#171717" flood-opacity=".22"/></filter></defs><path fill="#214a38" opacity=".12" d="M0 585C110 535 210 548 312 586c120 44 230 48 346 4 94-36 162-29 242 4v106H0Z"/><g fill="#214a38" opacity=".18"><path d="M68 610l60-130 60 130h-36v66h-48v-66Z"/><path d="M710 610l72-176 72 176h-42v72h-58v-72Z"/></g><g filter="url(#shadow)"><path fill="url(#wood)" d="M424 216h52l-8 418h-40Z"/><path fill="#171717" opacity=".2" d="M449 228h13l-8 396h-10Z"/><g transform="rotate(-7 446 250)"><path fill="url(#wood)" d="M160 165h458l76 66-76 66H160l54-66Z"/><path fill="#fff" opacity=".08" d="M188 180h418l54 47H225Z"/><text x="292" y="248" fill="#fff" font-family="Inter,Arial,sans-serif" font-size="42" font-weight="700" letter-spacing="8">THIS WAY</text></g><g transform="rotate(9 456 372)"><path fill="url(#wood)" d="M295 307h419l-52 63 52 63H295l-72-63Z"/><path fill="#fff" opacity=".08" d="M307 323h371l-39 45H254Z"/><text x="355" y="389" fill="#fff" font-family="Inter,Arial,sans-serif" font-size="40" font-weight="700" letter-spacing="7">OR MAYBE</text></g><path fill="#171717" d="M438 300l27-19 22 19-18 17 17 16-29 29-24-22 17-19Z"/></g><g fill="none" stroke="#171717" stroke-linecap="round" opacity=".28"><path d="M220 211h96M230 231h138M500 225h89M328 355h91M508 380h122" stroke-width="5"/></g></svg>